<?xml version="1.0" standalone="no"?>
<!DOCTYPE svg PUBLIC "-//W3C//DTD SVG 20010904//EN"
 "http://www.w3.org/TR/2001/REC-SVG-20010904/DTD/svg10.dtd">
<svg version="1.0" xmlns="http://www.w3.org/2000/svg"
 width="512.000000pt" height="512.000000pt" viewBox="0 0 512.000000 512.000000"
 preserveAspectRatio="xMidYMid meet">
<metadata>
Created by potrace 1.14, written by Peter Selinger 2001-2017
</metadata>
<g transform="translate(0.000000,512.000000) scale(0.100000,-0.100000)"
fill="#000000" stroke="none">
<path d="M2465 5107 c-143 -47 -238 -181 -231 -330 6 -138 101 -258 236 -300
13 -4 15 -29 15 -153 l0 -149 -190 -1 c-105 -1 -198 -2 -208 -3 -10 0 -27 -17
-39 -36 l-20 -36 -95 2 c-87 1 -95 3 -103 23 -15 41 -38 50 -123 51 -157 2
-291 -27 -421 -91 -246 -122 -427 -363 -471 -629 -11 -68 -13 -84 -14 -125
l-1 -35 -117 -1 c-102 -1 -124 -4 -163 -24 -48 -24 -81 -56 -108 -105 -15 -26
-17 -70 -20 -330 -3 -333 -1 -352 61 -415 55 -57 105 -73 234 -74 l113 -1 1
-25 c4 -202 83 -401 224 -569 45 -54 184 -155 269 -196 139 -68 236 -87 446
-89 l175 -2 1 -87 2 -87 -369 0 c-392 0 -434 -4 -529 -49 -72 -34 -168 -130
-203 -204 -47 -97 -52 -157 -51 -585 1 -416 3 -434 48 -446 36 -10 3433 -7
3459 3 38 15 46 53 44 222 -2 139 -4 159 -21 178 -11 12 -27 21 -37 21 -16 0
-18 10 -17 100 0 88 2 100 19 105 10 4 27 17 38 31 17 22 19 38 16 142 -2 86
-8 131 -23 169 -58 152 -159 250 -305 294 -53 16 -103 18 -415 19 -195 0 -358
3 -363 5 -4 3 -7 42 -6 88 l2 82 165 1 c202 2 253 9 378 55 331 121 562 443
571 795 l1 31 88 -2 c156 -2 229 24 281 101 37 54 41 91 41 386 -1 284 -1 287
-26 336 -26 52 -77 95 -137 116 -18 6 -81 11 -140 11 l-107 0 -1 25 c-5 222
-97 439 -254 595 -69 70 -153 135 -174 135 -6 0 -11 3 -11 8 0 4 -12 13 -27
19 -16 7 -49 21 -75 33 -26 11 -84 30 -130 42 -78 20 -109 21 -548 23 l-465 1
0 148 0 148 52 20 c107 40 192 160 199 281 10 184 -122 331 -308 342 -45 3
-89 -1 -113 -8z"/>
</g>
</svg>
